<?xml version="1.0" encoding="UTF-8"?>
<svg id="Layer_2" data-name="Layer 2" xmlns="http://www.w3.org/2000/svg" viewBox="0 0 500 500">
  <defs>
    <style>
      .cls-1 {
        fill: #4db3ff;
      }
    </style>
  </defs>
  <g id="Layer_1-2" data-name="Layer 1">
    <path class="cls-1" d="M480.56,0H19.44C8.72,0,0,8.72,0,19.44v461.12c0,10.72,8.72,19.44,19.44,19.44h461.12c10.72,0,19.44-8.72,19.44-19.44V19.44c0-10.72-8.72-19.44-19.44-19.44ZM182,410.57l79.05-36.45c12.03,19.01,31,33.19,53.33,38.89v55.73h-132.38v-58.17ZM137.87,468.74h-34.97v-21.69l34.97-16.13v37.82ZM314.38,365.85c-13.68-7.7-22.93-22.4-22.93-39.18s9.25-31.48,22.93-39.18c6.51-3.71,14.05-5.81,22.07-5.81s15.56,2.1,22.07,5.81c13.68,7.72,22.93,22.4,22.93,39.18s-9.25,31.46-22.93,39.18c-6.51,3.71-14.05,5.81-22.07,5.81s-15.56-2.1-22.07-5.81ZM314.38,165.86c-13.68-7.7-22.93-22.4-22.93-39.18s9.25-31.48,22.93-39.18c6.51-3.71,14.05-5.81,22.07-5.81s15.56,2.1,22.07,5.81c13.68,7.72,22.93,22.4,22.93,39.18s-9.25,31.46-22.93,39.18c-6.51,3.71-14.05,5.81-22.07,5.81s-15.56-2.1-22.07-5.81ZM314.38,40.33c-38.5,9.84-67.06,44.83-67.06,86.35s28.56,76.53,67.06,86.37v27.27c-38.5,9.82-67.06,44.81-67.06,86.35,0,1.71.06,3.42.15,5.13l-65.46,30.18v-52.56c38.49-9.84,67.04-44.81,67.04-86.35s-28.56-76.51-67.04-86.35V31.26h132.38v9.07ZM182,183.88c13.68,7.72,22.91,22.4,22.91,39.18s-9.23,31.46-22.91,39.18c-6.53,3.7-14.05,5.81-22.07,5.81s-15.56-2.1-22.07-5.81c-13.68-7.7-22.93-22.4-22.93-39.18s9.25-31.48,22.93-39.18c6.51-3.71,14.05-5.81,22.07-5.81s15.54,2.11,22.07,5.81ZM31.26,31.26h106.61v105.46c-38.5,9.84-67.06,44.81-67.06,86.35s28.56,76.51,67.06,86.35v72.91l-66.27,30.56c-7.83,3.6-12.83,11.42-12.83,20.04v35.81h-27.51V31.26ZM468.74,468.74h-110.23v-55.73c38.5-9.84,67.06-44.83,67.06-86.35s-28.56-76.51-67.06-86.35v-27.29c38.5-9.84,67.06-44.81,67.06-86.35s-28.56-76.51-67.06-86.35v-9.07h110.23v437.48Z"/>
  </g>
</svg>